<svg width="18" height="18" viewBox="0 0 18 18" fill="none" xmlns="http://www.w3.org/2000/svg">
<path d="M5.12025 4.63128C4.98524 4.84496 4.80511 5.02652 4.5925 5.16321C4.37989 5.2999 4.13995 5.38841 3.8895 5.42253C3.6045 5.46303 3.32175 5.50653 3.039 5.55378C2.24925 5.68503 1.6875 6.38028 1.6875 7.18053V13.5C1.6875 13.9476 1.86529 14.3768 2.18176 14.6933C2.49822 15.0097 2.92745 15.1875 3.375 15.1875H14.625C15.0726 15.1875 15.5018 15.0097 15.8182 14.6933C16.1347 14.3768 16.3125 13.9476 16.3125 13.5V7.18053C16.3125 6.38028 15.75 5.68503 14.961 5.55378C14.678 5.50664 14.3945 5.46288 14.1105 5.42253C13.8602 5.3883 13.6204 5.29974 13.4079 5.16306C13.1954 5.02638 13.0154 4.84488 12.8805 4.63128L12.264 3.64428C12.1255 3.41936 11.9349 3.2311 11.7083 3.09546C11.4816 2.95982 11.2257 2.88078 10.962 2.86503C9.65494 2.79483 8.34506 2.79483 7.038 2.86503C6.77434 2.88078 6.51836 2.95982 6.29172 3.09546C6.06508 3.2311 5.87446 3.41936 5.736 3.64428L5.12025 4.63128Z" stroke="#5E5E5E" stroke-width="1.5" stroke-linecap="round" stroke-linejoin="round"/>
<path d="M12.375 9.5625C12.375 10.4576 12.0194 11.316 11.3865 11.949C10.7535 12.5819 9.89511 12.9375 9 12.9375C8.10489 12.9375 7.24645 12.5819 6.61351 11.949C5.98058 11.316 5.625 10.4576 5.625 9.5625C5.625 8.66739 5.98058 7.80895 6.61351 7.17601C7.24645 6.54308 8.10489 6.1875 9 6.1875C9.89511 6.1875 10.7535 6.54308 11.3865 7.17601C12.0194 7.80895 12.375 8.66739 12.375 9.5625ZM14.0625 7.875H14.0685V7.881H14.0625V7.875Z" stroke="#5E5E5E" stroke-width="1.5" stroke-linecap="round" stroke-linejoin="round"/>
</svg>
